<svg xmlns="http://www.w3.org/2000/svg" viewBox="0 0 100 100">
  <defs>
    <linearGradient id="grad" x1="0%" y1="0%" x2="100%" y2="100%">
      <stop offset="0%" style="stop-color:#6366f1;stop-opacity:1" />
      <stop offset="100%" style="stop-color:#a855f7;stop-opacity:1" />
    </linearGradient>
  </defs>
  <circle cx="50" cy="50" r="45" fill="url(#grad)"/>
  <path fill="white" d="M30 45h8v20h-8a4 4 0 01-4-4v-12a4 4 0 014-4zm34-6v28a8 8 0 01-8 8h-20a8 8 0 01-8-8v-28a10 10 0 0110-10h6v-6a4 4 0 018 0v6h6a10 10 0 0110 10zm-35 13a5 5 0 105 5 5 5 0 00-5-5zm-1 16h8v4h-8zm12 0h8v4h-8zm12-16a5 5 0 105 5 5 5 0 00-5-5zm-1 16h8v4h-8zm30-16v16a4 4 0 01-4 4h-4v-24h4a4 4 0 014 4z" transform="scale(0.8) translate(12, 12)"/>
</svg>
